<svg xmlns="http://www.w3.org/2000/svg" viewBox="0 0 160 40" width="160" height="40">
  <rect width="160" height="40" rx="8" fill="#161b22" stroke="#30363d" stroke-width="1"/>
  <path fill="#8b949e" d="M24.5 12.8a8.2 8.2 0 0 0-2.9 15.9c.4.1.6-.2.6-.4v-1.4c-2.5.5-3-1.2-3-1.2-.4-1-.9-1.3-.9-1.3-.8-.5.1-.5.1-.5.9.1 1.3.9 1.3.9.8 1.3 2 1 2.5.8.1-.6.3-1 .5-1.2-2-.2-4.1-1-4.1-4.5 0-1 .4-1.8 1-2.4-.1-.2-.4-1 .1-2.1 0 0 .8-.3 2.7 1a9.2 9.2 0 0 1 5 0c1.9-1.3 2.7-1 2.7-1 .5 1.1.2 1.9.1 2.1.6.6 1 1.4 1 2.4 0 3.5-2.1 4.3-4.1 4.5.3.3.6.8.6 1.6v2.4c0 .2.2.5.6.4A8.2 8.2 0 0 0 24.5 12.8z"/>
  <text x="96" y="25" text-anchor="middle" fill="#F2F2F2" font-family="Segoe UI,system-ui,sans-serif" font-size="13" font-weight="600">GitHub</text>
</svg>
